<mxfile host="app.diagrams.net" modified="2024-03-31T23:30:50.371Z" agent="Mozilla/5.0 (Macintosh; Intel Mac OS X 10_15_7) AppleWebKit/537.36 (KHTML, like Gecko) Chrome/123.0.0.0 Safari/537.36" etag="dTUuU64NqXroEnbVWh1k" version="22.1.17" type="github">
  <diagram name="第 1 页" id="IKE3xWY_GMzQzQdA7gq0">
    <mxGraphModel dx="1434" dy="761" grid="0" gridSize="10" guides="1" tooltips="1" connect="1" arrows="1" fold="1" page="1" pageScale="1" pageWidth="827" pageHeight="1169" math="0" shadow="0">
      <root>
        <mxCell id="0" />
        <mxCell id="1" parent="0" />
        <mxCell id="8oTmHW9LUUxzTcO0Ki1U-2" value="" style="verticalLabelPosition=bottom;verticalAlign=top;html=1;shape=mxgraph.basic.rect;fillColor2=none;strokeWidth=1;size=20;indent=5;" vertex="1" parent="1">
          <mxGeometry x="100" y="90" width="120" height="610" as="geometry" />
        </mxCell>
        <mxCell id="8oTmHW9LUUxzTcO0Ki1U-3" value="" style="verticalLabelPosition=bottom;verticalAlign=top;html=1;shape=mxgraph.basic.rect;fillColor2=none;strokeWidth=1;size=20;indent=5;" vertex="1" parent="1">
          <mxGeometry x="100" y="160" width="120" height="60" as="geometry" />
        </mxCell>
        <mxCell id="8oTmHW9LUUxzTcO0Ki1U-4" value="" style="verticalLabelPosition=bottom;verticalAlign=top;html=1;shape=mxgraph.basic.rect;fillColor2=none;strokeWidth=1;size=20;indent=5;" vertex="1" parent="1">
          <mxGeometry x="100" y="482" width="120" height="60" as="geometry" />
        </mxCell>
        <mxCell id="8oTmHW9LUUxzTcO0Ki1U-5" value="" style="verticalLabelPosition=bottom;verticalAlign=top;html=1;shape=mxgraph.basic.rect;fillColor2=none;strokeWidth=1;size=20;indent=5;" vertex="1" parent="1">
          <mxGeometry x="100" y="270" width="120" height="60" as="geometry" />
        </mxCell>
        <mxCell id="8oTmHW9LUUxzTcO0Ki1U-6" value="" style="verticalLabelPosition=bottom;verticalAlign=top;html=1;shape=mxgraph.basic.rect;fillColor2=none;strokeWidth=1;size=20;indent=5;fillColor=#fff2cc;strokeColor=#d6b656;" vertex="1" parent="1">
          <mxGeometry x="100" y="328" width="120" height="60" as="geometry" />
        </mxCell>
        <mxCell id="8oTmHW9LUUxzTcO0Ki1U-7" value="pre" style="text;strokeColor=none;align=center;fillColor=none;html=1;verticalAlign=middle;whiteSpace=wrap;rounded=0;" vertex="1" parent="1">
          <mxGeometry x="130" y="101" width="60" height="30" as="geometry" />
        </mxCell>
        <mxCell id="8oTmHW9LUUxzTcO0Ki1U-8" value="3&lt;br&gt;(cur)" style="text;strokeColor=none;align=center;fillColor=none;html=1;verticalAlign=middle;whiteSpace=wrap;rounded=0;" vertex="1" parent="1">
          <mxGeometry x="132" y="175" width="60" height="30" as="geometry" />
        </mxCell>
        <mxCell id="8oTmHW9LUUxzTcO0Ki1U-11" value="2&lt;br&gt;(tmp)" style="text;strokeColor=none;align=center;fillColor=none;html=1;verticalAlign=middle;whiteSpace=wrap;rounded=0;" vertex="1" parent="1">
          <mxGeometry x="130" y="228" width="60" height="30" as="geometry" />
        </mxCell>
        <mxCell id="8oTmHW9LUUxzTcO0Ki1U-12" value="1" style="text;strokeColor=none;align=center;fillColor=none;html=1;verticalAlign=middle;whiteSpace=wrap;rounded=0;" vertex="1" parent="1">
          <mxGeometry x="130" y="287" width="60" height="30" as="geometry" />
        </mxCell>
        <mxCell id="8oTmHW9LUUxzTcO0Ki1U-13" value="" style="verticalLabelPosition=bottom;verticalAlign=top;html=1;shape=mxgraph.basic.rect;fillColor2=none;strokeWidth=1;size=20;indent=5;" vertex="1" parent="1">
          <mxGeometry x="299" y="90" width="120" height="610" as="geometry" />
        </mxCell>
        <mxCell id="8oTmHW9LUUxzTcO0Ki1U-14" value="" style="verticalLabelPosition=bottom;verticalAlign=top;html=1;shape=mxgraph.basic.rect;fillColor2=none;strokeWidth=1;size=20;indent=5;" vertex="1" parent="1">
          <mxGeometry x="299" y="160" width="120" height="60" as="geometry" />
        </mxCell>
        <mxCell id="8oTmHW9LUUxzTcO0Ki1U-15" value="" style="verticalLabelPosition=bottom;verticalAlign=top;html=1;shape=mxgraph.basic.rect;fillColor2=none;strokeWidth=1;size=20;indent=5;" vertex="1" parent="1">
          <mxGeometry x="299" y="482" width="120" height="60" as="geometry" />
        </mxCell>
        <mxCell id="8oTmHW9LUUxzTcO0Ki1U-16" value="" style="verticalLabelPosition=bottom;verticalAlign=top;html=1;shape=mxgraph.basic.rect;fillColor2=none;strokeWidth=1;size=20;indent=5;" vertex="1" parent="1">
          <mxGeometry x="299" y="270" width="120" height="60" as="geometry" />
        </mxCell>
        <mxCell id="8oTmHW9LUUxzTcO0Ki1U-17" value="" style="verticalLabelPosition=bottom;verticalAlign=top;html=1;shape=mxgraph.basic.rect;fillColor2=none;strokeWidth=1;size=20;indent=5;fillColor=#fff2cc;strokeColor=#d6b656;" vertex="1" parent="1">
          <mxGeometry x="299" y="330" width="120" height="60" as="geometry" />
        </mxCell>
        <mxCell id="8oTmHW9LUUxzTcO0Ki1U-18" value="pre" style="text;strokeColor=none;align=center;fillColor=none;html=1;verticalAlign=middle;whiteSpace=wrap;rounded=0;" vertex="1" parent="1">
          <mxGeometry x="329" y="101" width="60" height="30" as="geometry" />
        </mxCell>
        <mxCell id="8oTmHW9LUUxzTcO0Ki1U-19" value="3&lt;br&gt;(cur)" style="text;strokeColor=none;align=center;fillColor=none;html=1;verticalAlign=middle;whiteSpace=wrap;rounded=0;" vertex="1" parent="1">
          <mxGeometry x="323" y="233" width="60" height="30" as="geometry" />
        </mxCell>
        <mxCell id="8oTmHW9LUUxzTcO0Ki1U-20" value="2" style="text;strokeColor=none;align=center;fillColor=none;html=1;verticalAlign=middle;whiteSpace=wrap;rounded=0;" vertex="1" parent="1">
          <mxGeometry x="323" y="169" width="60" height="30" as="geometry" />
        </mxCell>
        <mxCell id="8oTmHW9LUUxzTcO0Ki1U-21" value="1&lt;br&gt;(&lt;font color=&quot;#ff6666&quot;&gt;tmp&lt;/font&gt;)" style="text;strokeColor=none;align=center;fillColor=none;html=1;verticalAlign=middle;whiteSpace=wrap;rounded=0;" vertex="1" parent="1">
          <mxGeometry x="329" y="287" width="60" height="30" as="geometry" />
        </mxCell>
        <mxCell id="8oTmHW9LUUxzTcO0Ki1U-22" value="" style="endArrow=classic;html=1;rounded=0;" edge="1" parent="1">
          <mxGeometry width="50" height="50" relative="1" as="geometry">
            <mxPoint x="432" y="380" as="sourcePoint" />
            <mxPoint x="488" y="380" as="targetPoint" />
          </mxGeometry>
        </mxCell>
        <mxCell id="8oTmHW9LUUxzTcO0Ki1U-25" value="" style="curved=1;endArrow=classic;html=1;rounded=0;dashed=1;" edge="1" parent="1">
          <mxGeometry width="50" height="50" relative="1" as="geometry">
            <mxPoint x="205" y="259" as="sourcePoint" />
            <mxPoint x="222" y="158" as="targetPoint" />
            <Array as="points">
              <mxPoint x="255" y="259" />
              <mxPoint x="298" y="203" />
            </Array>
          </mxGeometry>
        </mxCell>
        <mxCell id="8oTmHW9LUUxzTcO0Ki1U-26" value="" style="endArrow=classic;html=1;rounded=0;" edge="1" parent="1">
          <mxGeometry width="50" height="50" relative="1" as="geometry">
            <mxPoint x="247" y="385" as="sourcePoint" />
            <mxPoint x="284" y="385" as="targetPoint" />
          </mxGeometry>
        </mxCell>
        <mxCell id="8oTmHW9LUUxzTcO0Ki1U-29" value="" style="verticalLabelPosition=bottom;verticalAlign=top;html=1;shape=mxgraph.basic.rect;fillColor2=none;strokeWidth=1;size=20;indent=5;" vertex="1" parent="1">
          <mxGeometry x="559" y="92" width="120" height="610" as="geometry" />
        </mxCell>
        <mxCell id="8oTmHW9LUUxzTcO0Ki1U-30" value="" style="verticalLabelPosition=bottom;verticalAlign=top;html=1;shape=mxgraph.basic.rect;fillColor2=none;strokeWidth=1;size=20;indent=5;" vertex="1" parent="1">
          <mxGeometry x="559" y="162" width="120" height="60" as="geometry" />
        </mxCell>
        <mxCell id="8oTmHW9LUUxzTcO0Ki1U-31" value="" style="verticalLabelPosition=bottom;verticalAlign=top;html=1;shape=mxgraph.basic.rect;fillColor2=none;strokeWidth=1;size=20;indent=5;" vertex="1" parent="1">
          <mxGeometry x="559" y="488" width="120" height="60" as="geometry" />
        </mxCell>
        <mxCell id="8oTmHW9LUUxzTcO0Ki1U-32" value="" style="verticalLabelPosition=bottom;verticalAlign=top;html=1;shape=mxgraph.basic.rect;fillColor2=none;strokeWidth=1;size=20;indent=5;" vertex="1" parent="1">
          <mxGeometry x="559" y="272" width="120" height="60" as="geometry" />
        </mxCell>
        <mxCell id="8oTmHW9LUUxzTcO0Ki1U-33" value="" style="verticalLabelPosition=bottom;verticalAlign=top;html=1;shape=mxgraph.basic.rect;fillColor2=none;strokeWidth=1;size=20;indent=5;fillColor=#fff2cc;strokeColor=#d6b656;" vertex="1" parent="1">
          <mxGeometry x="559" y="332" width="120" height="60" as="geometry" />
        </mxCell>
        <mxCell id="8oTmHW9LUUxzTcO0Ki1U-34" value="pre" style="text;strokeColor=none;align=center;fillColor=none;html=1;verticalAlign=middle;whiteSpace=wrap;rounded=0;" vertex="1" parent="1">
          <mxGeometry x="589" y="103" width="60" height="30" as="geometry" />
        </mxCell>
        <mxCell id="8oTmHW9LUUxzTcO0Ki1U-35" value="2" style="text;strokeColor=none;align=center;fillColor=none;html=1;verticalAlign=middle;whiteSpace=wrap;rounded=0;" vertex="1" parent="1">
          <mxGeometry x="586" y="237" width="60" height="30" as="geometry" />
        </mxCell>
        <mxCell id="8oTmHW9LUUxzTcO0Ki1U-36" value="1" style="text;strokeColor=none;align=center;fillColor=none;html=1;verticalAlign=middle;whiteSpace=wrap;rounded=0;" vertex="1" parent="1">
          <mxGeometry x="583" y="171" width="60" height="30" as="geometry" />
        </mxCell>
        <mxCell id="8oTmHW9LUUxzTcO0Ki1U-37" value="3&lt;br&gt;(cur)" style="text;strokeColor=none;align=center;fillColor=none;html=1;verticalAlign=middle;whiteSpace=wrap;rounded=0;" vertex="1" parent="1">
          <mxGeometry x="589" y="289" width="60" height="30" as="geometry" />
        </mxCell>
        <mxCell id="8oTmHW9LUUxzTcO0Ki1U-38" value="" style="curved=1;endArrow=classic;html=1;rounded=0;entryX=1.033;entryY=-0.017;entryDx=0;entryDy=0;entryPerimeter=0;dashed=1;exitX=1;exitY=0.25;exitDx=0;exitDy=0;" edge="1" parent="1" source="8oTmHW9LUUxzTcO0Ki1U-21" target="8oTmHW9LUUxzTcO0Ki1U-14">
          <mxGeometry width="50" height="50" relative="1" as="geometry">
            <mxPoint x="414" y="297" as="sourcePoint" />
            <mxPoint x="423" y="193" as="targetPoint" />
            <Array as="points">
              <mxPoint x="464" y="297" />
              <mxPoint x="507" y="241" />
              <mxPoint x="483" y="180" />
            </Array>
          </mxGeometry>
        </mxCell>
        <mxCell id="8oTmHW9LUUxzTcO0Ki1U-41" value="&lt;span style=&quot;font-family: Helvetica; font-size: 12px; font-style: normal; font-variant-ligatures: normal; font-variant-caps: normal; font-weight: 400; letter-spacing: normal; orphans: 2; text-align: center; text-indent: 0px; text-transform: none; widows: 2; word-spacing: 0px; -webkit-text-stroke-width: 0px; background-color: rgb(251, 251, 251); text-decoration-thickness: initial; text-decoration-style: initial; text-decoration-color: initial; float: none; display: inline !important;&quot;&gt;&lt;font color=&quot;#ff6666&quot;&gt;(tmp.Next)&lt;/font&gt;&lt;/span&gt;" style="text;whiteSpace=wrap;html=1;" vertex="1" parent="1">
          <mxGeometry x="136" y="304" width="56" height="36" as="geometry" />
        </mxCell>
        <mxCell id="8oTmHW9LUUxzTcO0Ki1U-43" value="tmp:=cur.Next&lt;br&gt;cur.Next=tmp.Next&lt;br&gt;tmp.Next=pre.Next&lt;br&gt;pre.Next=tmp&lt;br&gt;" style="shape=ext;double=1;rounded=1;whiteSpace=wrap;html=1;" vertex="1" parent="1">
          <mxGeometry x="190" width="120" height="80" as="geometry" />
        </mxCell>
      </root>
    </mxGraphModel>
  </diagram>
</mxfile>
